<?xml version="1.0" encoding="iso-8859-1"?>
<!-- Generator: Adobe Illustrator 18.0.0, SVG Export Plug-In . SVG Version: 6.00 Build 0)  -->
<!DOCTYPE svg PUBLIC "-//W3C//DTD SVG 1.1//EN" "http://www.w3.org/Graphics/SVG/1.1/DTD/svg11.dtd">
<svg version="1.1" id="Capa_1" xmlns="http://www.w3.org/2000/svg" xmlns:xlink="http://www.w3.org/1999/xlink" x="0px" y="0px"
	 viewBox="0 0 159.704 159.704" style="enable-background:new 0 0 159.704 159.704;" xml:space="preserve">
<g>
	<circle style="fill:#A3DCE2;" cx="79.852" cy="79.852" r="79.852"/>
	<g>
		<path style="fill:#FFFFFF;" d="M118.5,77.589h-11.308l6.878-5.053c0.974-0.711,1.188-2.096,0.477-3.068
			c-0.71-0.975-2.076-1.16-3.05-0.449l-11.715,8.57H85.206l10.402-10.441l14.23-2.244c1.191-0.188,2.005-1.313,1.819-2.504
			c-0.186-1.191-1.303-2.01-2.494-1.824l-8.317,1.299l7.902-7.902c0.852-0.854,0.852-2.234,0-3.086
			c-0.853-0.854-2.235-0.855-3.087-0.002l-8.011,8.012l1.332-8.506c0.186-1.191-0.628-2.307-1.819-2.494
			c-1.191-0.188-2.308,0.627-2.494,1.82l-2.015,14.418L82.602,74.427V59.716l8.246-11.637c0.71-0.975,0.376-2.34-0.599-3.051
			c-0.974-0.711-2.158-0.498-2.868,0.479l-4.779,6.801V41.132c0-1.205-1.294-2.184-2.5-2.184s-2.5,0.979-2.5,2.184V52.46
			l-4.996-6.953c-0.71-0.977-2.038-1.189-3.012-0.479s-1.245,2.076-0.534,3.051l8.542,11.789v14.559L67.291,64.04l-2.205-14.324
			c-0.187-1.191-1.285-2.006-2.476-1.82c-1.19,0.189-1.995,1.305-1.809,2.496l1.321,8.41l-7.915-7.918
			c-0.853-0.854-2.233-0.854-3.085,0c-0.853,0.854-0.852,2.234,0,3.086l7.917,7.918l-8.409-1.316
			c-1.191-0.188-2.308,0.627-2.494,1.818c-0.187,1.191,0.628,2.309,1.819,2.496l14.323,2.277l10.388,10.426h-14.69l-11.714-8.58
			c-0.974-0.711-2.339-0.516-3.05,0.459c-0.71,0.973-0.497,2.367,0.478,3.078l6.877,5.043H41.371c-1.206,0-2.183,0.795-2.183,2
			c0,1.205,0.977,2,2.183,2h11.196l-6.877,5.16c-0.974,0.711-1.188,2.15-0.478,3.123c0.71,0.975,2.076,1.08,3.05,0.369l11.714-8.652
			h14.691L64.373,92.029l-14.419,2.33c-1.191,0.188-2.019,1.34-1.833,2.529c0.186,1.193,1.48,2.025,2.48,1.838v0.01l8.517-1.326
			l-8.003,8.012c-0.853,0.854-0.849,2.234,0.003,3.088c0.852,0.854,2.236,0.854,3.088,0l7.904-7.902l-1.302,8.316
			c-0.187,1.193,0.628,2.309,1.819,2.494c1.191,0.188,2.308-0.627,2.495-1.816l2.153-14.232l10.326-10.402v14.559l-8.523,11.791
			c-0.711,0.973-0.459,2.34,0.515,3.049c0.974,0.711,2.283,0.498,2.994-0.477l5.015-6.953v11.328c0,1.205,1.294,2.182,2.5,2.182
			s2.5-0.977,2.5-2.182v-11.176l4.719,6.801c0.71,0.973,1.955,1.188,2.929,0.477c0.975-0.709,1.37-2.076,0.659-3.049l-8.307-11.639
			V84.966l10.066,10.309l2.122,14.326c0.186,1.189,1.243,2.004,2.434,1.816c1.191-0.186,1.975-1.301,1.789-2.494l-1.332-8.408
			l7.988,7.994c0.852,0.854,2.23,0.854,3.083,0c0.853-0.852,0.851-2.232-0.002-3.086l-7.996-7.996l8.409,1.316
			c1.191,0.188,2.308-0.627,2.495-1.818c0.186-1.191-0.629-2.307-1.82-2.494l-14.325-2.389L85.205,81.589h14.579l11.715,8.688
			c0.974,0.711,2.339,0.57,3.05-0.404c0.71-0.973,0.497-2.447-0.477-3.158l-6.878-5.125H118.5c1.206,0,2.183-0.795,2.183-2
			C120.684,78.384,119.707,77.589,118.5,77.589"/>
		<path style="fill:#F7F7F7;" d="M80.102,38.948v81.496c1.206,0,2.5-0.977,2.5-2.182v-11.176l4.719,6.801
			c0.428,0.586,1.048,0.896,1.688,0.896c0.423,0,0.854-0.137,1.241-0.42c0.632-0.459,1.02-1.195,1.021-1.922
			c0.001-0.395-0.113-0.785-0.362-1.127l-8.307-11.639V84.966l10.066,10.309l2.122,14.326c0.168,1.074,1.047,1.844,2.093,1.844
			c0.112,0,0.226-0.01,0.34-0.027c1.075-0.168,1.818-1.092,1.816-2.146c0-0.115-0.009-0.231-0.027-0.348l-1.332-8.408l7.988,7.994
			c0.426,0.428,0.983,0.641,1.541,0.641s1.116-0.213,1.542-0.641c0.426-0.426,0.639-0.984,0.639-1.543
			c-0.001-0.559-0.214-1.117-0.641-1.543l-7.996-7.996l8.409,1.316c0.115,0.02,0.229,0.027,0.342,0.027
			c1.056,0,1.984-0.77,2.153-1.846c0.017-0.111,0.026-0.223,0.026-0.332c0.003-1.061-0.767-1.992-1.846-2.162l-14.325-2.389
			L85.205,81.589h14.579l11.715,8.688c0.408,0.299,0.885,0.447,1.353,0.447c0.65,0,1.284-0.285,1.696-0.852
			c0.283-0.387,0.419-0.855,0.419-1.322c0-0.705-0.311-1.408-0.897-1.836l-6.878-5.125H118.5c1.206,0,2.183-0.795,2.183-2
			c0-1.205-0.977-2-2.183-2h-11.308l6.878-5.053c0.586-0.428,0.897-1.1,0.897-1.777c0-0.451-0.136-0.904-0.419-1.291
			c-0.422-0.578-1.075-0.879-1.739-0.879c-0.455,0-0.914,0.141-1.31,0.43l-11.715,8.57H85.206l10.402-10.441l14.23-2.244
			c1.075-0.168,1.843-1.102,1.846-2.156c0.001-0.115-0.008-0.23-0.026-0.348c-0.168-1.076-1.098-1.85-2.155-1.85
			c-0.112,0-0.225,0.008-0.339,0.025l-8.317,1.299l7.902-7.902c0.426-0.428,0.64-0.984,0.64-1.543c0-0.559-0.213-1.117-0.64-1.543
			c-0.426-0.428-0.986-0.641-1.544-0.641c-0.559,0-1.117,0.213-1.542,0.639l-8.011,8.012l1.332-8.506
			c0.018-0.117,0.027-0.232,0.026-0.346c-0.003-1.055-0.771-1.98-1.846-2.148c-0.115-0.018-0.229-0.025-0.342-0.025
			c-1.056-0.002-1.984,0.768-2.152,1.846l-2.015,14.418L82.602,74.427V59.716l8.246-11.637c0.261-0.357,0.381-0.768,0.38-1.18
			c-0.001-0.709-0.362-1.422-0.978-1.871c-0.388-0.283-0.81-0.42-1.221-0.42c-0.621,0-1.22,0.31-1.647,0.898l-4.779,6.801V41.132
			C82.602,39.927,81.308,38.948,80.102,38.948"/>
	</g>
</g>
<g>
</g>
<g>
</g>
<g>
</g>
<g>
</g>
<g>
</g>
<g>
</g>
<g>
</g>
<g>
</g>
<g>
</g>
<g>
</g>
<g>
</g>
<g>
</g>
<g>
</g>
<g>
</g>
<g>
</g>
</svg>
