<?xml version="1.0" encoding="iso-8859-1"?>
<!-- Generator: Adobe Illustrator 19.0.0, SVG Export Plug-In . SVG Version: 6.00 Build 0)  -->
<svg version="1.1" id="Layer_1" xmlns="http://www.w3.org/2000/svg" xmlns:xlink="http://www.w3.org/1999/xlink" x="0px" y="0px"
	 viewBox="0 0 512 512" style="enable-background:new 0 0 512 512;" xml:space="preserve">
<path style="fill:#D6D6D6;" d="M416.953,285.826c46.86,0,84.847-37.988,84.847-84.847s-37.988-84.847-84.847-84.847
	c-4.371,0-8.664,0.332-12.857,0.97C404.063,76.8,371.385,44.14,331.076,44.14c-16.962,0-32.56,5.799-44.956,15.503
	c-18.535-23.826-47.476-39.157-80.001-39.157c-54.25,0-98.539,42.644-101.177,96.24c-3.248-0.377-6.546-0.594-9.896-0.594
	c-46.86,0-84.847,37.988-84.847,84.847s37.988,84.847,84.847,84.847h321.906V285.826z"/>
<g>
	<path style="fill:#3D3D3D;" d="M416.953,105.931c-1.134,0-2.269,0.02-3.405,0.061c-5.475-40.62-40.385-72.052-82.47-72.052
		c-15.446,0-30.191,4.145-43.161,12.064C266.84,23.19,237.533,10.285,206.12,10.285c-56.037,0-102.676,41.249-110.385,95.649
		c-0.231-0.002-0.459-0.003-0.688-0.003C42.637,105.931,0,148.569,0,200.977s42.638,95.046,95.046,95.046h91.142l-25.686,52.594
		c-1.749,3.58-1.252,7.851,1.271,10.935c2.216,2.708,5.646,4.064,9.05,3.675l-13.876,21.329c-3.072,4.721-1.735,11.04,2.987,14.112
		c1.718,1.117,3.645,1.651,5.551,1.651c3.336,0,6.605-1.634,8.559-4.638l28.159-43.282c2.297-3.53,2.189-8.109-0.275-11.526
		c-2.464-3.417-6.772-4.968-10.849-3.905l-2.506,0.654l20.315-41.597h121.284l-57.625,117.996c-1.749,3.58-1.252,7.851,1.271,10.935
		c2.524,3.084,6.612,4.417,10.468,3.41l21.82-5.692l-41.17,63.282c-3.072,4.721-1.735,11.039,2.987,14.111
		c1.718,1.118,3.645,1.651,5.551,1.651c3.336,0,6.605-1.634,8.559-4.638l55.536-85.362c2.297-3.53,2.188-8.109-0.275-11.526
		s-6.771-4.968-10.849-3.905l-25.826,6.738l52.255-106.999h64.08c52.41,0,95.046-42.638,95.046-95.046
		S469.361,105.931,416.953,105.931z M416.953,275.626H95.045c-41.161,0-74.648-33.487-74.648-74.648s33.487-74.648,74.648-74.648
		c2.827,0,5.679,0.171,8.718,0.525c2.811,0.33,5.619-0.524,7.771-2.349c2.154-1.826,3.455-4.461,3.594-7.28
		c2.389-48.529,42.355-86.542,90.989-86.542c28.314,0,54.539,12.837,71.951,35.22c1.663,2.139,4.11,3.528,6.801,3.86
		c2.688,0.331,5.401-0.421,7.535-2.091c11.146-8.723,24.518-13.334,38.671-13.334c34.611,0,62.79,28.158,62.819,62.77
		c0.002,2.971,1.299,5.794,3.554,7.73c2.253,1.936,5.238,2.795,8.178,2.346c3.727-0.566,7.537-0.854,11.325-0.854
		c41.161,0,74.648,33.487,74.648,74.648S458.114,275.626,416.953,275.626z"/>
	<path style="fill:#3D3D3D;" d="M221.032,242.717H93.503c-5.632,0-10.199,4.566-10.199,10.199c0,5.633,4.567,10.199,10.199,10.199
		h127.529c5.632,0,10.199-4.566,10.199-10.199C231.231,247.283,226.664,242.717,221.032,242.717z"/>
	<path style="fill:#3D3D3D;" d="M263.199,242.717h-5.142c-5.632,0-10.199,4.566-10.199,10.199c0,5.633,4.567,10.199,10.199,10.199
		h5.142c5.632,0,10.199-4.566,10.199-10.199C273.398,247.283,268.831,242.717,263.199,242.717z"/>
</g>
<g>
</g>
<g>
</g>
<g>
</g>
<g>
</g>
<g>
</g>
<g>
</g>
<g>
</g>
<g>
</g>
<g>
</g>
<g>
</g>
<g>
</g>
<g>
</g>
<g>
</g>
<g>
</g>
<g>
</g>
</svg>
